<svg xmlns="http://www.w3.org/2000/svg" width="38" height="39" viewBox="0 0 38 39"><g transform="translate(-1804 -1018)"><path d="M15,0l.375,19.75L30,30,15,20.5,0,30,14.625,19.75Z" transform="translate(1808 1019)" fill="#20a1af"/><path d="M19,1A17.642,17.642,0,0,0,6.281,6.409a18.476,18.476,0,0,0-3.864,5.881,19.039,19.039,0,0,0,0,14.419,18.476,18.476,0,0,0,3.864,5.881,17.657,17.657,0,0,0,25.438,0,18.476,18.476,0,0,0,3.864-5.881,19.039,19.039,0,0,0,0-14.419,18.476,18.476,0,0,0-3.864-5.881A17.642,17.642,0,0,0,19,1m0-1A19.255,19.255,0,0,1,38,19.5,19.255,19.255,0,0,1,19,39,19.255,19.255,0,0,1,0,19.5,19.255,19.255,0,0,1,19,0Z" transform="translate(1804 1018)" fill="#20a1af"/></g></svg>